PathFileType	4	(X/Y/Z)	Trial11_HipL_markers_cropped.trc
DataRate	CameraRate	NumFrames	NumMarkers	Units	OrigDataRate	OrigDataStartFrame	OrigNumFrames
200	200	4	27	m	200	63	101
Frame#	Time	R_ASIS			L_ASIS			Sacral			L_Thigh_Superior			L_Thigh_Posterior			L_Thigh_Inferior			L_Thigh_Lateral			L_Shank_Posterior			L_Shank_Superior			L_Shank_Lateral			L_Shank_Inferior			L_Midfoot_Superior			L_Heel			L_Midfoot_Lateral			L_Toe			R_Thigh_Posterior			R_Thigh_Superior			R_Thigh_Lateral			R_Thigh_Inferior			R_Shank_Posterior			R_Shank_Superior			R_Shank_Lateral			R_Shank_Inferior			R_Midfoot_Superior			R_Heel			R_Midfoot_Lateral			R_Toe
		X1	Y1	Z1	X2	Y2	Z2	X3	Y3	Z3	X4	Y4	Z4	X5	Y5	Z5	X6	Y6	Z6	X7	Y7	Z7	X8	Y8	Z8	X9	Y9	Z9	X10	Y10	Z10	X11	Y11	Z11	X12	Y12	Z12	X13	Y13	Z13	X14	Y14	Z14	X15	Y15	Z15	X16	Y16	Z16	X17	Y17	Z17	X18	Y18	Z18	X19	Y19	Z19	X20	Y20	Z20	X21	Y21	Z21	X22	Y22	Z22	X23	Y23	Z23	X24	Y24	Z24	X25	Y25	Z25	X26	Y26	Z26	X27	Y27	Z27

64	   0.315	    1.05770646582972	    0.97747847577497	    0.66964412130190	    1.01847321197723	    1.02128856269602	    0.42640865049824	    0.84339116666371	    1.02152539452769	    0.58984622476804	    1.09639399771458	    0.85843510708298	    0.31257939373826	    1.04356420601623	    0.80441463712265	    0.31254363106393	    1.16170305225701	    0.78946876509219	    0.30839104903406	    1.10234258009903	    0.73613984431426	    0.30783910958727	    1.24475829739392	    0.51234270198013	    0.27572262983668	    1.31290051532348	    0.54503453870304	    0.27293778806692	    1.28585609183724	    0.45568462894466	    0.26102026403982	    1.33955689253967	    0.49407333820945	    0.26139713969360	    1.53749556027530	    0.35407746925045	    0.29124391625572	    1.43438930969650	    0.20934893354214	    0.32433559791871	    1.51259102852782	    0.26045885041082	    0.24704539101694	    1.66383988113461	    0.39018117782479	    0.27143427694161	    0.98960703690540	    0.75435026838576	    0.70743249060561	    1.06424931906656	    0.75938317789443	    0.69676567810865	    0.99938515905727	    0.65614777639365	    0.69380845039534	    1.06985298052346	    0.66417390875604	    0.68691862668505	    0.95292065375376	    0.33917889587611	    0.65054884315845	    1.02792645163536	    0.32584626923466	    0.63931027614838	    0.94750192939723	    0.27083038685609	    0.62982269165450	    1.01944483438717	    0.26927758566301	    0.62118484205508	    1.04604183095195	    0.08745231212466	    0.53243946175793	    0.87653696190271	    0.04527420096149	    0.49453684601642	    0.96921091764441	    0.01327156954500	    0.57233447194626	    1.16935492463836	    0.04126100569919	    0.54429610084000
65	   0.320	    1.06264880846566	    0.97575060701880	    0.66924249035666	    1.02385106871583	    1.01959163610841	    0.42559098722316	    0.84891882479308	    1.02486955098800	    0.58990886401605	    1.09334679687427	    0.84358819012727	    0.31417982956317	    1.03532578138712	    0.79536623155778	    0.31506758913154	    1.15132327063152	    0.76840758396964	    0.31132742539145	    1.08687228124250	    0.72150752695010	    0.31177531396137	    1.20242030183069	    0.48405161410593	    0.28281452232426	    1.27465927470309	    0.50650607272396	    0.28083442057631	    1.23509544348258	    0.42198078475020	    0.26924433784028	    1.29378169015927	    0.45210004787837	    0.27017196380909	    1.46687137347822	    0.28731048335405	    0.30395962734635	    1.34672879525706	    0.15631980888210	    0.33648109961699	    1.43108593117502	    0.19726713364840	    0.25977043898266	    1.59686155747814	    0.30774131874494	    0.28482806296009	    0.99257070869577	    0.75354492946828	    0.70796046688733	    1.06714155442785	    0.75805787098502	    0.69670334109808	    1.00168752731848	    0.65522264793259	    0.69425362809777	    1.07216436827720	    0.66281475675252	    0.68695392965737	    0.95451028865418	    0.33854695038077	    0.65108988635488	    1.02918854625132	    0.32517103307032	    0.63900035262884	    0.94884773011749	    0.27025715684231	    0.63025930245398	    1.02049525981619	    0.26859161227122	    0.62071486909582	    1.04605868542901	    0.08733178059341	    0.53233148342092	    0.87662479148976	    0.04515033700666	    0.49498652038592	    0.96921838767794	    0.01325272565931	    0.57224406682427	    1.16929740277288	    0.04122934439816	    0.54406761149859
66	   0.325	    1.06781979980432	    0.97392531340650	    0.66889403892520	    1.03064587190278	    1.01794958708047	    0.42471361752022	    0.85559678035636	    1.02888476272063	    0.58933965344385	    1.08987515865228	    0.82956452926931	    0.31644331503959	    1.02707786160761	    0.78783569497074	    0.31762464040373	    1.13952461592415	    0.74862512072868	    0.31557501331731	    1.07043107943166	    0.70888229707159	    0.31604331484425	    1.15680080956695	    0.46019764599973	    0.29041139365936	    1.23155477259050	    0.47240664043380	    0.28925282107243	    1.18080850930499	    0.39415047249917	    0.27789623801684	    1.24309137135639	    0.41577897328560	    0.27936851488308	    1.38960476661382	    0.23191280458768	    0.31655166678501	    1.25594118008605	    0.11472283054852	    0.34866085644202	    1.34437795006490	    0.14628999334925	    0.27219645906044	    1.52102986921788	    0.23809396146738	    0.29769824341751	    0.99497217595791	    0.75273217914074	    0.70863976316155	    1.06950466768137	    0.75658272360354	    0.69714002309701	    1.00316476593608	    0.65436211123712	    0.69488637002673	    1.07365824591808	    0.66127976147552	    0.68736263526130	    0.95522781977078	    0.33797736290780	    0.65137873085768	    1.02985870613435	    0.32470569614676	    0.63889958011301	    0.94950391192104	    0.26976302172798	    0.63048698238974	    1.02095585367586	    0.26814473150031	    0.62050719212988	    1.04596443384426	    0.08734004835133	    0.53215418661257	    0.87658190008566	    0.04512018161679	    0.49504809308436	    0.96921690850727	    0.01325277456957	    0.57221148304767	    1.16925514160935	    0.04116858084787	    0.54380158881613
67	   0.330	    1.07283806628238	    0.97167066426535	    0.66894158541467	    1.03811459708837	    1.01588613061201	    0.42433021161439	    0.86288924795079	    1.03432785379049	    0.58859249112767	    1.08413010192316	    0.81730279401790	    0.31913285018950	    1.01752404909221	    0.78187102947264	    0.32109273392363	    1.12556119707805	    0.73172298459662	    0.32021626281716	    1.05287575208488	    0.69904238703522	    0.32138634167566	    1.11096816740026	    0.44416394839052	    0.29724161580990	    1.18672761390456	    0.44523841302185	    0.29729595459992	    1.12521096568565	    0.37518256242371	    0.28553063713843	    1.19002685841862	    0.38753240278338	    0.28787572808194	    1.30617726760760	    0.18793143651377	    0.32866827989136	    1.16002870112733	    0.08587957996044	    0.35891489379605	    1.25251298879052	    0.10781541528430	    0.28357613111940	    1.43752869615466	    0.17998643953814	    0.31156430884711	    0.99598614158648	    0.75216247566774	    0.70917347775733	    1.07065642563247	    0.75508841178160	    0.69819318659846	    1.00304267339220	    0.65368227772919	    0.69530822128008	    1.07368805190267	    0.65977442890527	    0.68831297195379	    0.95501855557420	    0.33758920792709	    0.65183613236945	    1.02965794747891	    0.32456323444179	    0.63903630413459	    0.94937673407708	    0.26938521165640	    0.63086581695411	    1.02084756753679	    0.26799578126985	    0.62057944456282	    1.04590372077345	    0.08720325564307	    0.53205502836955	    0.87654382156788	    0.04509046013557	    0.49507983797406	    0.96922108553734	    0.01316946468453	    0.57235955220965	    1.16920075964333	    0.04151644751923	    0.54393471852076
